<svg width="30" height="30" viewBox="0 0 30 30" fill="none" xmlns="http://www.w3.org/2000/svg">
<path d="M4.66872 12.8808L8.81635 1.88617L16.6431 4.11777L14.3688 15.6465C13.7958 18.5509 10.8631 20.3455 8.0161 19.5338C5.16916 18.7221 3.62382 15.6506 4.66872 12.8808Z" stroke="black" stroke-linecap="round" stroke-linejoin="round"/>
<path d="M8.019 19.5327L5.71802 27.6028" stroke="black" stroke-linecap="round" stroke-linejoin="round"/>
<path d="M2.53625 26.6935L8.89452 28.5064" stroke="black" stroke-linecap="round" stroke-linejoin="round"/>
<path d="M6.74664 7.36609L15.5022 9.88562" stroke="black"/>
<path d="M18.3571 19.2059C19.4405 19.7413 20.7206 19.8943 21.9838 19.5341C24.8308 18.7224 26.3762 15.651 25.3312 12.8811L21.1836 1.88647L19.9504 2.23809" stroke="black" stroke-linecap="round" stroke-linejoin="round"/>
<path d="M21.981 19.5327L24.282 27.6028" stroke="black" stroke-linecap="round" stroke-linejoin="round"/>
<path d="M27.4637 26.6935L21.1055 28.5064" stroke="black" stroke-linecap="round" stroke-linejoin="round"/>
<path d="M23.2534 7.39117L19.6783 8.42176" stroke="black" stroke-linecap="round" stroke-linejoin="round"/>
</svg>
