<svg width="20" height="20" viewBox="0 0 20 20" fill="none" xmlns="http://www.w3.org/2000/svg">
<path d="M19.6899 12.6572C19.6899 13.9697 19.4097 15.1147 18.8491 16.0923C18.2954 17.0767 17.4854 17.8389 16.4189 18.3789C15.3525 18.9258 14.0537 19.1992 12.5225 19.1992H10.1538C9.87354 19.1992 9.64795 19.1104 9.47705 18.9326C9.30615 18.7549 9.2207 18.5396 9.2207 18.2866C9.2207 18.0337 9.30615 17.8184 9.47705 17.6406C9.64795 17.4629 9.87354 17.374 10.1538 17.374H12.5122C13.6812 17.374 14.6621 17.1621 15.4551 16.7383C16.248 16.3213 16.8462 15.7505 17.2495 15.0259C17.6528 14.3013 17.8545 13.4775 17.8545 12.5547C17.8545 11.6387 17.6528 10.8286 17.2495 10.1245C16.8462 9.41357 16.248 8.85986 15.4551 8.46338C14.6621 8.06689 13.6812 7.86865 12.5122 7.86865H5.46777L2.28906 7.7251L2.47363 7.25342L5.00635 9.42725L7.96973 12.3086C8.04492 12.3906 8.10303 12.4829 8.14404 12.5854C8.19189 12.688 8.21582 12.8042 8.21582 12.9341C8.21582 13.2007 8.13037 13.4194 7.95947 13.5903C7.79541 13.7544 7.57666 13.8364 7.30322 13.8364C7.05029 13.8364 6.83154 13.7407 6.64697 13.5493L0.617676 7.63281C0.515137 7.53711 0.436523 7.43115 0.381836 7.31494C0.333984 7.19873 0.310059 7.0791 0.310059 6.95605C0.310059 6.82617 0.333984 6.70312 0.381836 6.58691C0.436523 6.4707 0.515137 6.36475 0.617676 6.26904L6.64697 0.352539C6.83154 0.161133 7.05029 0.0654297 7.30322 0.0654297C7.57666 0.0654297 7.79541 0.150879 7.95947 0.321777C8.13037 0.48584 8.21582 0.701172 8.21582 0.967773C8.21582 1.09766 8.19189 1.21387 8.14404 1.31641C8.10303 1.41895 8.04492 1.51123 7.96973 1.59326L5.00635 4.48486L2.47363 6.64844L2.28906 6.17676L5.46777 6.0332H12.3584C13.917 6.0332 15.2432 6.31348 16.3369 6.87402C17.4307 7.43457 18.2612 8.21387 18.8286 9.21191C19.4028 10.2031 19.6899 11.3516 19.6899 12.6572Z" fill="#76DCC6"/>
</svg>
