<svg width="30" height="30" viewBox="0 0 30 30" fill="none" xmlns="http://www.w3.org/2000/svg">
<path d="M8.85017 27.5804C10.7065 28.4895 12.7936 29 15 29C22.7321 29 29 22.7321 29 15C29 7.26802 22.7321 1 15 1C7.26802 1 1 7.26802 1 15C1 17.8702 1.86374 20.5387 3.34545 22.7597M8.85017 27.5804L1 29L3.34545 22.7597M8.85017 27.5804L8.86154 27.5785L8.85017 27.5804ZM3.34545 22.7597L3.34769 22.7538L3.34545 22.7597Z" fill="white"/>
<path d="M8.85017 27.5804C10.7065 28.4895 12.7936 29 15 29C22.7321 29 29 22.7321 29 15C29 7.26802 22.7321 1 15 1C7.26802 1 1 7.26802 1 15C1 17.8702 1.86374 20.5387 3.34545 22.7597M8.85017 27.5804L1 29L3.34545 22.7597M8.85017 27.5804L8.86154 27.5785M3.34545 22.7597L3.34769 22.7538" stroke="white" stroke-width="2" stroke-linecap="round" stroke-linejoin="round"/>
</svg>
