<svg width="18" height="18" viewBox="0 0 18 18" fill="none" xmlns="http://www.w3.org/2000/svg">
<path d="M1 4.69229H17" stroke="black" stroke-linecap="round" stroke-linejoin="round"/>
<path d="M3 4.69229H15V15.7692C15 16.0956 14.8595 16.4087 14.6095 16.6395C14.3595 16.8703 14.0203 17 13.6667 17H4.33333C3.97971 17 3.64057 16.8703 3.39052 16.6395C3.14048 16.4087 3 16.0956 3 15.7692V4.69229Z" stroke="black" stroke-linecap="round" stroke-linejoin="round"/>
<path d="M5.66669 4.69231V4.07692C5.66669 3.26087 6.01787 2.47824 6.64299 1.90121C7.26811 1.32417 8.11597 1 9.00002 1C9.88407 1 10.7319 1.32417 11.357 1.90121C11.9822 2.47824 12.3334 3.26087 12.3334 4.07692V4.69231" stroke="black" stroke-linecap="round" stroke-linejoin="round"/>
<path d="M7 8.38641V13.3114" stroke="black" stroke-linecap="round" stroke-linejoin="round"/>
<path d="M11 8.38641V13.3114" stroke="black" stroke-linecap="round" stroke-linejoin="round"/>
</svg>
