<svg width="54" height="54" viewBox="0 0 54 54" fill="none" xmlns="http://www.w3.org/2000/svg">
<path fill-rule="evenodd" clip-rule="evenodd" d="M44.3574 11.5714L40.5002 1.92859H13.5002L9.64307 11.5714H44.3574ZM44.3574 27H9.64307L13.5002 52.0714H40.5002L44.3574 27Z" fill="#B7A07F"/>
<path d="M44.3571 11.5715H9.64279C7.51256 11.5715 5.78564 13.2984 5.78564 15.4286V23.1429C5.78564 25.2731 7.51256 27 9.64279 27H44.3571C46.4874 27 48.2142 25.2731 48.2142 23.1429V15.4286C48.2142 13.2984 46.4874 11.5715 44.3571 11.5715Z" fill="white"/>
<path d="M44.3571 11.5715H9.64279C7.51256 11.5715 5.78564 13.2984 5.78564 15.4286V23.1429C5.78564 25.2731 7.51256 27 9.64279 27H44.3571C46.4874 27 48.2142 25.2731 48.2142 23.1429V15.4286C48.2142 13.2984 46.4874 11.5715 44.3571 11.5715Z" stroke="#3D3E53" stroke-width="3" stroke-linecap="round" stroke-linejoin="round"/>
<path d="M44.3574 11.5714L40.5002 1.92859H13.5002L9.64307 11.5714" stroke="#3D3E53" stroke-width="3" stroke-linecap="round" stroke-linejoin="round"/>
<path d="M44.3574 27L40.5002 52.0714H13.5002L9.64307 27" stroke="#3D3E53" stroke-width="3" stroke-linecap="round" stroke-linejoin="round"/>
</svg>
