<svg width="20" height="20" viewBox="0 0 20 20" fill="none" xmlns="http://www.w3.org/2000/svg">
<g clip-path="url(#clip0_640_992)">
<path fill-rule="evenodd" clip-rule="evenodd" d="M10 20C15.5229 20 20 15.5229 20 10C20 4.47716 15.5229 0 10 0C4.47716 0 0 4.47716 0 10C0 15.5229 4.47716 20 10 20ZM14.1003 4.28434C14.4953 4.57953 14.5761 5.13904 14.281 5.53404L11.0083 9.91349V9.94053H12.799C13.2921 9.94053 13.6919 10.3403 13.6919 10.8334C13.6919 11.3265 13.2921 11.7262 12.799 11.7262H11.0083V12.9575H12.799C13.2921 12.9575 13.6919 13.3572 13.6919 13.8504C13.6919 14.3434 13.2921 14.7433 12.799 14.7433H11.0083V15.3981C11.0083 15.8913 10.6086 16.291 10.1154 16.291C9.62233 16.291 9.22259 15.8913 9.22259 15.3981V14.7433H7.41524C6.92214 14.7433 6.52239 14.3434 6.52239 13.8504C6.52239 13.3572 6.92214 12.9575 7.41524 12.9575H9.22259V11.7262H7.41524C6.92214 11.7262 6.52239 11.3265 6.52239 10.8334C6.52239 10.3403 6.92214 9.94053 7.41524 9.94053H9.22259V9.91443L5.93459 5.53569C5.63849 5.14137 5.71811 4.58169 6.11243 4.28559C6.50676 3.9895 7.06644 4.06911 7.36254 4.46344L10.1138 8.12737L12.8506 4.46509C13.1458 4.07009 13.7053 3.98917 14.1003 4.28434Z" fill="black"/>
</g>
<defs>
<clipPath id="clip0_640_992">
<rect width="20" height="20" fill="white"/>
</clipPath>
</defs>
</svg>
