<svg width="20" height="22" viewBox="0 0 20 22" fill="none" xmlns="http://www.w3.org/2000/svg">
<path fill-rule="evenodd" clip-rule="evenodd" d="M16.2859 5.28572L14.8573 1.71429H4.85728L3.42871 5.28572H16.2859ZM16.2859 11H3.42871L4.85728 20.2857H14.8573L16.2859 11Z" fill="#B7A07F"/>
<path d="M16.2857 5.28571H3.42857C2.6396 5.28571 2 5.92531 2 6.71428V9.57142C2 10.3604 2.6396 11 3.42857 11H16.2857C17.0747 11 17.7143 10.3604 17.7143 9.57142V6.71428C17.7143 5.92531 17.0747 5.28571 16.2857 5.28571Z" fill="white"/>
<path d="M16.2857 5.28571H3.42857C2.6396 5.28571 2 5.92531 2 6.71428V9.57142C2 10.3604 2.6396 11 3.42857 11H16.2857C17.0747 11 17.7143 10.3604 17.7143 9.57142V6.71428C17.7143 5.92531 17.0747 5.28571 16.2857 5.28571Z" stroke="#3D3E53" stroke-linecap="round" stroke-linejoin="round"/>
<path d="M16.2859 5.28572L14.8573 1.71429H4.85728L3.42871 5.28572" stroke="#3D3E53" stroke-linecap="round" stroke-linejoin="round"/>
<path d="M16.2859 11L14.8573 20.2857H4.85728L3.42871 11" stroke="#3D3E53" stroke-linecap="round" stroke-linejoin="round"/>
</svg>
