<svg width="20" height="20" viewBox="0 0 20 20" fill="none" xmlns="http://www.w3.org/2000/svg">
<path fill-rule="evenodd" clip-rule="evenodd" d="M2.85714 12.8571V3.57138H17.1429V12.8571H2.85714ZM2.08113 0.714233C0.931756 0.714233 0 1.64599 0 2.79537V13.6331C0 14.7826 0.931757 15.7143 2.08113 15.7143H7.83294L7.06837 17.8506H5.71426C5.12253 17.8506 4.64283 18.3303 4.64283 18.922C4.64283 19.5137 5.12253 19.9934 5.71426 19.9934H14.2857C14.8774 19.9934 15.3571 19.5137 15.3571 18.922C15.3571 18.3303 14.8774 17.8506 14.2857 17.8506H12.9316L12.1671 15.7143H17.9189C19.0683 15.7143 20 14.7826 20 13.6331V2.79537C20 1.64599 19.0683 0.714233 17.9189 0.714233H2.08113Z" fill="#383838"/>
</svg>
