<svg width="18" height="18" viewBox="0 0 18 18" fill="none" xmlns="http://www.w3.org/2000/svg">
<path d="M5.9231 11.961L15.3754 15.6466C15.5605 15.718 15.7574 15.737 15.95 15.7018C16.1425 15.6669 16.3253 15.5787 16.4831 15.445C16.6421 15.3126 16.772 15.1378 16.8619 14.9349C16.9518 14.7322 16.9992 14.5073 17 14.2789V2.43031C16.9992 2.2019 16.9518 1.97702 16.8619 1.77426C16.772 1.57149 16.6421 1.39664 16.4831 1.26416C16.3242 1.13278 16.1411 1.04732 15.9484 1.01478C15.756 0.982259 15.5595 1.00358 15.3754 1.077L5.9231 4.76259V11.961Z" stroke="black" stroke-width="1.71429" stroke-linecap="round" stroke-linejoin="round"/>
<path d="M1 8.36178C1 8.83443 1.07959 9.30245 1.23422 9.73914C1.38885 10.1758 1.6155 10.5726 1.90121 10.9068C2.47824 11.5818 3.26087 11.961 4.07692 11.961H5.92308V4.76257H4.07692C3.67286 4.76257 3.27275 4.85566 2.89943 5.03654C2.52613 5.21743 2.18693 5.48254 1.90121 5.81675C1.32417 6.49173 1 7.40721 1 8.36178Z" stroke="black" stroke-width="1.71429" stroke-linecap="round" stroke-linejoin="round"/>
<path d="M4.0769 11.9611V13.4008C4.0769 13.8734 4.15649 14.3415 4.31112 14.7781C4.46575 15.2148 4.6924 15.6116 4.97811 15.9457C5.26383 16.28 5.60303 16.5451 5.97634 16.726C6.34966 16.9069 6.74977 17 7.15383 17" stroke="black" stroke-width="1.71429" stroke-linecap="round" stroke-linejoin="round"/>
</svg>
