<svg width="20" height="20" viewBox="0 0 20 20" fill="none" xmlns="http://www.w3.org/2000/svg">
<path d="M1.69815 4.67576C1.67747 4.78065 1.66663 4.88908 1.66663 5.00004V15C1.66663 15.9205 2.41282 16.6667 3.33329 16.6667H16.6666C17.5871 16.6667 18.3333 15.9205 18.3333 15V5.00004C18.3333 4.89999 18.3245 4.802 18.3076 4.70681L17.5864 5.24768L11.0124 10.2749C10.4148 10.7319 9.58514 10.7319 8.98755 10.2749L2.40318 5.23978L1.69815 4.67576Z" fill="#383838"/>
<path d="M17.2306 3.4312C17.0544 3.36788 16.8646 3.33337 16.6666 3.33337H3.33329C3.14602 3.33337 2.96597 3.36426 2.79794 3.42122L3.43009 3.92693L9.99997 8.95095L16.5833 3.91666L17.2306 3.4312Z" fill="#383838"/>
</svg>
