<svg width="20" height="20" viewBox="0 0 20 20" fill="none" xmlns="http://www.w3.org/2000/svg">
<path fill-rule="evenodd" clip-rule="evenodd" d="M14.7041 1.84699C15.262 1.2891 16.1666 1.2891 16.7244 1.84699L19.5816 4.70413C20.1394 5.26203 20.1394 6.16655 19.5816 6.72445C19.0237 7.28233 18.1191 7.28233 17.5613 6.72445L15.7143 4.87745L14.1632 6.42859L16.0101 8.27556C16.568 8.83346 16.568 9.73798 16.0101 10.2959C15.4523 10.8538 14.5477 10.8538 13.9898 10.2959L12.1429 8.44889L10.6374 9.95435C11.1401 10.8051 11.4286 11.7974 11.4286 12.8571C11.4286 16.013 8.8702 18.5714 5.71429 18.5714C2.55837 18.5714 0 16.013 0 12.8571C0 9.70123 2.55837 7.14286 5.71429 7.14286C6.77401 7.14286 7.76637 7.43133 8.61711 7.93405L11.1276 5.42359L11.1327 5.41842L11.1379 5.41327L14.7041 1.84699ZM2.85714 12.8571C2.85714 11.2792 4.13633 10 5.71429 10C7.29224 10 8.57143 11.2792 8.57143 12.8571C8.57143 14.4351 7.29224 15.7143 5.71429 15.7143C4.13633 15.7143 2.85714 14.4351 2.85714 12.8571Z" fill="black"/>
</svg>
