<svg width="8" height="8" viewBox="0 0 8 8" fill="none" xmlns="http://www.w3.org/2000/svg">
<g clip-path="url(#clip0_277_262)">
<path d="M0.95436 0.820526C0.835275 0.822577 0.719046 0.857223 0.618303 0.920692C0.51756 0.98416 0.436132 1.07403 0.382932 1.18053C0.322817 1.28687 0.291218 1.40695 0.291218 1.5291C0.291218 1.65125 0.322817 1.77133 0.382932 1.87767L3.44005 6.82052C3.49186 6.92806 3.57298 7.01881 3.67406 7.08235C3.77515 7.14583 3.8921 7.17949 4.01148 7.17949C4.13086 7.17949 4.24781 7.14583 4.3489 7.08235C4.44998 7.01881 4.5311 6.92806 4.58291 6.82052L7.6172 1.87767C7.67729 1.77133 7.70886 1.65125 7.70886 1.5291C7.70886 1.40695 7.67729 1.28687 7.6172 1.18053C7.56394 1.07403 7.48252 0.98416 7.38178 0.920692C7.28103 0.857223 7.16482 0.822578 7.04577 0.820526L0.95436 0.820526Z" stroke="black" stroke-linecap="round" stroke-linejoin="round"/>
</g>
<defs>
<clipPath id="clip0_277_262">
<rect width="8" height="8" fill="white" transform="translate(8) rotate(90)"/>
</clipPath>
</defs>
</svg>
