<svg width="35" height="35" viewBox="0 0 35 35" fill="none" xmlns="http://www.w3.org/2000/svg">
<rect x="4" y="3" width="22" height="26" rx="4" fill="white"/>
<path fill-rule="evenodd" clip-rule="evenodd" d="M7.54747 6.97114C7.54747 6.76016 7.70963 6.61898 7.87359 6.61898H22.2723C22.4362 6.61898 22.5984 6.76016 22.5984 6.97114V12.8427H7.54747V6.97114ZM7.87359 4.04004C6.27039 4.04004 5 5.3688 5 6.97114V25.029C5 26.6314 6.27039 27.96 7.87359 27.96H22.2723C23.8755 27.96 25.1459 26.6314 25.1459 25.029V6.97114C25.1459 5.3688 23.8755 4.04004 22.2723 4.04004H7.87359ZM9.68768 18.9559C10.3911 18.9559 10.9614 18.3786 10.9614 17.6664C10.9614 16.9543 10.3911 16.377 9.68768 16.377C8.98422 16.377 8.41394 16.9543 8.41394 17.6664C8.41394 18.3786 8.98422 18.9559 9.68768 18.9559ZM15.0729 18.9559C15.7764 18.9559 16.3467 18.3786 16.3467 17.6664C16.3467 16.9543 15.7764 16.377 15.0729 16.377C14.3695 16.377 13.7992 16.9543 13.7992 17.6664C13.7992 18.3786 14.3695 18.9559 15.0729 18.9559ZM21.7319 17.6664C21.7319 18.3786 21.1616 18.9559 20.4582 18.9559C19.7547 18.9559 19.1844 18.3786 19.1844 17.6664C19.1844 16.9543 19.7547 16.377 20.4582 16.377C21.1616 16.377 21.7319 16.9543 21.7319 17.6664ZM9.68768 24.501C10.3911 24.501 10.9614 23.9237 10.9614 23.2115C10.9614 22.4994 10.3911 21.9221 9.68768 21.9221C8.98422 21.9221 8.41394 22.4994 8.41394 23.2115C8.41394 23.9237 8.98422 24.501 9.68768 24.501ZM16.3467 23.2115C16.3467 23.9237 15.7764 24.501 15.0729 24.501C14.3695 24.501 13.7992 23.9237 13.7992 23.2115C13.7992 22.4994 14.3695 21.9221 15.0729 21.9221C15.7764 21.9221 16.3467 22.4994 16.3467 23.2115ZM20.4582 24.501C21.1616 24.501 21.7319 23.9237 21.7319 23.2115C21.7319 22.4994 21.1616 21.9221 20.4582 21.9221C19.7547 21.9221 19.1844 22.4994 19.1844 23.2115C19.1844 23.9237 19.7547 24.501 20.4582 24.501ZM17.5595 8.78205C16.9733 8.78205 16.498 9.26314 16.498 9.85661C16.498 10.4501 16.9733 10.9312 17.5595 10.9312H19.9685C20.5548 10.9312 21.03 10.4501 21.03 9.85661C21.03 9.26314 20.5548 8.78205 19.9685 8.78205H17.5595Z" fill="#78A69C"/>
<g clip-path="url(#clip0_600_5445)">
<rect x="17.5" y="17.5" width="15.3125" height="15.3125" rx="7.65625" fill="white"/>
<path fill-rule="evenodd" clip-rule="evenodd" d="M32.0834 25.1561C32.0834 28.9818 28.982 32.0832 25.1563 32.0832C21.3306 32.0832 18.2292 28.9818 18.2292 25.1561C18.2292 21.3304 21.3306 18.229 25.1563 18.229C28.982 18.229 32.0834 21.3304 32.0834 25.1561ZM25.8984 21.4451C25.8984 21.0353 25.5661 20.703 25.1562 20.703C24.7463 20.703 24.4141 21.0353 24.4141 21.4451V21.9503C23.487 22.0487 22.7648 22.8332 22.7648 23.7863C22.7648 24.654 23.3689 25.4046 24.2166 25.59L25.6743 25.9089C25.9012 25.9585 26.0634 26.1598 26.0634 26.3926C26.0634 26.6662 25.8415 26.8878 25.5686 26.8878H24.7439C24.5297 26.8878 24.3454 26.7512 24.2771 26.558C24.1405 26.1716 23.7165 25.969 23.33 26.1056C22.9436 26.2422 22.741 26.6662 22.8776 27.0527C23.1136 27.7204 23.6981 28.2248 24.4141 28.3448V28.867C24.4141 29.2769 24.7463 29.6092 25.1562 29.6092C25.5661 29.6092 25.8984 29.2769 25.8984 28.867V28.3448C26.8347 28.1877 27.5478 27.373 27.5478 26.3926C27.5478 25.4628 26.9004 24.6576 25.9915 24.4588L24.5338 24.1399C24.3676 24.1035 24.2492 23.9564 24.2492 23.7863C24.2492 23.5864 24.4112 23.4243 24.6111 23.4243H25.5686C25.7151 23.4243 25.8459 23.487 25.9376 23.5894C25.9806 23.6375 26.014 23.6934 26.0354 23.7541C26.172 24.1406 26.596 24.3431 26.9825 24.2065C27.369 24.0699 27.5715 23.6459 27.4349 23.2594C27.3478 23.0128 27.2135 22.7893 27.0436 22.5995C26.7515 22.2731 26.3509 22.0434 25.8984 21.9674V21.4451Z" fill="#78A69C"/>
</g>
<defs>
<clipPath id="clip0_600_5445">
<rect x="17.5" y="17.5" width="15.3125" height="15.3125" rx="7.65625" fill="white"/>
</clipPath>
</defs>
</svg>
