<svg width="44" height="44" viewBox="0 0 44 44" fill="none" xmlns="http://www.w3.org/2000/svg">
<path d="M31.6899 25.6572C31.6899 26.9697 31.4097 28.1147 30.8491 29.0923C30.2954 30.0767 29.4854 30.8389 28.4189 31.3789C27.3525 31.9258 26.0537 32.1992 24.5225 32.1992H22.1538C21.8735 32.1992 21.6479 32.1104 21.4771 31.9326C21.3062 31.7549 21.2207 31.5396 21.2207 31.2866C21.2207 31.0337 21.3062 30.8184 21.4771 30.6406C21.6479 30.4629 21.8735 30.374 22.1538 30.374H24.5122C25.6812 30.374 26.6621 30.1621 27.4551 29.7383C28.248 29.3213 28.8462 28.7505 29.2495 28.0259C29.6528 27.3013 29.8545 26.4775 29.8545 25.5547C29.8545 24.6387 29.6528 23.8286 29.2495 23.1245C28.8462 22.4136 28.248 21.8599 27.4551 21.4634C26.6621 21.0669 25.6812 20.8687 24.5122 20.8687H17.4678L14.2891 20.7251L14.4736 20.2534L17.0063 22.4272L19.9697 25.3086C20.0449 25.3906 20.103 25.4829 20.144 25.5854C20.1919 25.688 20.2158 25.8042 20.2158 25.9341C20.2158 26.2007 20.1304 26.4194 19.9595 26.5903C19.7954 26.7544 19.5767 26.8364 19.3032 26.8364C19.0503 26.8364 18.8315 26.7407 18.647 26.5493L12.6177 20.6328C12.5151 20.5371 12.4365 20.4312 12.3818 20.3149C12.334 20.1987 12.3101 20.0791 12.3101 19.9561C12.3101 19.8262 12.334 19.7031 12.3818 19.5869C12.4365 19.4707 12.5151 19.3647 12.6177 19.269L18.647 13.3525C18.8315 13.1611 19.0503 13.0654 19.3032 13.0654C19.5767 13.0654 19.7954 13.1509 19.9595 13.3218C20.1304 13.4858 20.2158 13.7012 20.2158 13.9678C20.2158 14.0977 20.1919 14.2139 20.144 14.3164C20.103 14.4189 20.0449 14.5112 19.9697 14.5933L17.0063 17.4849L14.4736 19.6484L14.2891 19.1768L17.4678 19.0332H24.3584C25.917 19.0332 27.2432 19.3135 28.3369 19.874C29.4307 20.4346 30.2612 21.2139 30.8286 22.2119C31.4028 23.2031 31.6899 24.3516 31.6899 25.6572Z" fill="#76DCC6"/>
</svg>
