<svg width="58" height="58" viewBox="0 0 58 58" fill="none" xmlns="http://www.w3.org/2000/svg">
<rect width="57.0588" height="57.0588" rx="28.5294" fill="#76DCC6"/>
<path fill-rule="evenodd" clip-rule="evenodd" d="M21.5159 12.7492C21.5159 11.7809 22.3009 10.9958 23.2693 10.9958H33.7895C34.7579 10.9958 35.5429 11.7809 35.5429 12.7492H39.0496C40.9863 12.7492 42.5564 14.3192 42.5564 16.256V42.5565C42.5564 44.4932 40.9863 46.0633 39.0496 46.0633H18.0092C16.0725 46.0633 14.5024 44.4932 14.5024 42.5565V16.256C14.5024 14.3192 16.0725 12.7492 18.0092 12.7492H21.5159ZM32.0361 14.5026H25.0227V18.0093H23.2693C22.3009 18.0093 21.5159 18.7943 21.5159 19.7627C21.5159 20.7311 22.3009 21.5161 23.2693 21.5161H33.7895C34.7579 21.5161 35.5429 20.7311 35.5429 19.7627C35.5429 18.7943 34.7579 18.0093 33.7895 18.0093H32.0361V14.5026ZM26.776 28.5296C26.776 27.5612 27.561 26.7762 28.5294 26.7762H33.7895C34.7579 26.7762 35.5429 27.5612 35.5429 28.5296C35.5429 29.4979 34.7579 30.2829 33.7895 30.2829H28.5294C27.561 30.2829 26.776 29.4979 26.776 28.5296ZM23.2693 26.7762C22.3009 26.7762 21.5159 27.5612 21.5159 28.5296C21.5159 29.4979 22.3009 30.2829 23.2693 30.2829H23.2868C24.2552 30.2829 25.0402 29.4979 25.0402 28.5296C25.0402 27.5612 24.2552 26.7762 23.2868 26.7762H23.2693ZM26.776 35.543C26.776 34.5747 27.561 33.7897 28.5294 33.7897H33.7895C34.7579 33.7897 35.5429 34.5747 35.5429 35.543C35.5429 36.5114 34.7579 37.2964 33.7895 37.2964H28.5294C27.561 37.2964 26.776 36.5114 26.776 35.543ZM23.2693 33.7897C22.3009 33.7897 21.5159 34.5747 21.5159 35.543C21.5159 36.5114 22.3009 37.2964 23.2693 37.2964H23.2868C24.2552 37.2964 25.0402 36.5114 25.0402 35.543C25.0402 34.5747 24.2552 33.7897 23.2868 33.7897H23.2693Z" fill="white"/>
</svg>
