<svg width="50" height="51" viewBox="0 0 50 51" fill="none" xmlns="http://www.w3.org/2000/svg">
<path fill-rule="evenodd" clip-rule="evenodd" d="M39.7092 14.0877L36.4212 5.86774H13.4054L10.1174 14.0877H39.7092ZM39.7092 27.2396H10.1174L13.4054 48.6114H36.4212L39.7092 27.2396Z" fill="#B7A07F"/>
<path d="M39.7091 14.0876H10.1173C8.30144 14.0876 6.82935 15.5597 6.82935 17.3756V23.9516C6.82935 25.7675 8.30144 27.2395 10.1173 27.2395H39.7091C41.5251 27.2395 42.9971 25.7675 42.9971 23.9516V17.3756C42.9971 15.5597 41.5251 14.0876 39.7091 14.0876Z" fill="white"/>
<path d="M39.7091 14.0876H10.1173C8.30144 14.0876 6.82935 15.5597 6.82935 17.3756V23.9516C6.82935 25.7675 8.30144 27.2395 10.1173 27.2395H39.7091C41.5251 27.2395 42.9971 25.7675 42.9971 23.9516V17.3756C42.9971 15.5597 41.5251 14.0876 39.7091 14.0876Z" stroke="#3D3E53" stroke-width="2.10144" stroke-linecap="round" stroke-linejoin="round"/>
<path d="M39.7092 14.0877L36.4212 5.86774H13.4054L10.1174 14.0877" stroke="#3D3E53" stroke-width="2.10144" stroke-linecap="round" stroke-linejoin="round"/>
<path d="M39.7092 27.2396L36.4212 48.6114H13.4054L10.1174 27.2396" stroke="#3D3E53" stroke-width="2.10144" stroke-linecap="round" stroke-linejoin="round"/>
</svg>
