<svg width="13" height="14" viewBox="0 0 13 14" fill="none" xmlns="http://www.w3.org/2000/svg">
<g clip-path="url(#clip0_1905_2032)">
<path d="M7.8217 1.02026H5.06108C4.55286 1.02026 4.14087 1.43213 4.14087 1.9402V2.40017C4.14087 2.90824 4.55286 3.32011 5.06108 3.32011H7.8217C8.32991 3.32011 8.74191 2.90824 8.74191 2.40017V1.9402C8.74191 1.43213 8.32991 1.02026 7.8217 1.02026Z" stroke="#8E8E93" stroke-linecap="round" stroke-linejoin="round"/>
<path d="M8.97201 1.94019H10.3523C10.5964 1.94019 10.8305 2.03711 11.003 2.20963C11.1755 2.38215 11.2725 2.61614 11.2725 2.86013V12.0595C11.2725 12.3035 11.1755 12.5375 11.003 12.71C10.8305 12.8825 10.5964 12.9795 10.3523 12.9795H2.53056C2.2865 12.9795 2.05245 12.8825 1.87987 12.71C1.7073 12.5375 1.61035 12.3035 1.61035 12.0595V2.86013C1.61035 2.61614 1.7073 2.38215 1.87987 2.20963C2.05245 2.03711 2.2865 1.94019 2.53056 1.94019H3.91087" stroke="#8E8E93" stroke-linecap="round" stroke-linejoin="round"/>
</g>
<defs>
<clipPath id="clip0_1905_2032">
<rect width="12.8829" height="12.8792" fill="white" transform="translate(0 0.560303)"/>
</clipPath>
</defs>
</svg>
