<svg width="34" height="34" viewBox="0 0 34 34" fill="none" xmlns="http://www.w3.org/2000/svg">
<path d="M26.7143 13.3564H7.28569C5.94444 13.3564 4.85712 14.4438 4.85712 15.785V30.3564C4.85712 31.6977 5.94444 32.785 7.28569 32.785H26.7143C28.0556 32.785 29.1428 31.6977 29.1428 30.3564V15.785C29.1428 14.4438 28.0556 13.3564 26.7143 13.3564Z" fill="#D9D9D9" stroke="black" stroke-width="2" stroke-linecap="round" stroke-linejoin="round"/>
<path d="M25.5 13.3567V9.71387C25.5 7.45952 24.6046 5.29751 23.0104 3.70347C21.4164 2.1094 19.2543 1.21387 17 1.21387C14.7457 1.21387 12.5836 2.1094 10.9896 3.70347C9.39554 5.29751 8.5 7.45952 8.5 9.71387V13.3567" stroke="black" stroke-width="2" stroke-linecap="round" stroke-linejoin="round"/>
<path d="M17 24.285C17.6706 24.285 18.2143 23.7414 18.2143 23.0707C18.2143 22.4001 17.6706 21.8564 17 21.8564C16.3294 21.8564 15.7857 22.4001 15.7857 23.0707C15.7857 23.7414 16.3294 24.285 17 24.285Z" stroke="black" stroke-width="2" stroke-linecap="round" stroke-linejoin="round"/>
</svg>
