<svg width="8" height="12" viewBox="0 0 8 12" fill="none" xmlns="http://www.w3.org/2000/svg">
<path d="M7.5166 6.00684C7.5166 5.71908 7.40316 5.46729 7.17627 5.25146L2.2041 0.329102C2.02148 0.146484 1.80013 0.0551758 1.54004 0.0551758C1.26888 0.0551758 1.03923 0.149251 0.851074 0.337402C0.662923 0.52002 0.568848 0.744141 0.568848 1.00977C0.568848 1.27539 0.671224 1.51058 0.875977 1.71533L5.23389 6.00684L0.875977 10.2983C0.671224 10.5031 0.568848 10.7383 0.568848 11.0039C0.568848 11.2695 0.662923 11.4964 0.851074 11.6846C1.03923 11.8672 1.26888 11.9585 1.54004 11.9585C1.80013 11.9585 2.02148 11.8672 2.2041 11.6846L7.17627 6.76221C7.29248 6.646 7.37826 6.52702 7.43359 6.40527C7.48893 6.28353 7.5166 6.15072 7.5166 6.00684Z" fill="#76DCC6"/>
</svg>
