<svg width="40" height="40" viewBox="0 0 40 40" fill="none" xmlns="http://www.w3.org/2000/svg">
<rect width="40" height="40" rx="20" fill="#76DCC6"/>
<path d="M14.7463 27V24.96C15.9863 23.8267 17.0729 22.7733 18.0063 21.8C18.9396 20.8267 19.6663 19.92 20.1863 19.08C20.7063 18.2267 20.9663 17.44 20.9663 16.72C20.9663 16.2667 20.8863 15.8867 20.7263 15.58C20.5796 15.26 20.3596 15.02 20.0663 14.86C19.7729 14.7 19.4263 14.62 19.0263 14.62C18.5196 14.62 18.0596 14.7667 17.6463 15.06C17.2463 15.34 16.8663 15.6733 16.5063 16.06L14.5662 14.14C15.2996 13.3533 16.0396 12.7733 16.7863 12.4C17.5463 12.0267 18.4529 11.84 19.5063 11.84C20.4663 11.84 21.3129 12.0333 22.0463 12.42C22.7796 12.8067 23.3529 13.3533 23.7663 14.06C24.1796 14.7533 24.3863 15.5733 24.3863 16.52C24.3863 17.3733 24.1663 18.2467 23.7263 19.14C23.2996 20.02 22.7463 20.8933 22.0663 21.76C21.3863 22.6133 20.6663 23.4267 19.9063 24.2C20.2796 24.1467 20.6929 24.1 21.1463 24.06C21.6129 24.02 22.0129 24 22.3463 24H25.0663V27H14.7463Z" fill="white"/>
</svg>
