<svg width="33" height="34" viewBox="0 0 33 34" fill="none" xmlns="http://www.w3.org/2000/svg">
<rect x="0.316406" y="0.842552" width="32" height="32" rx="16" transform="rotate(0.566639 0.316406 0.842552)" fill="#76DCC6"/>
<path d="M13.1547 14.0714C13.1547 13.4781 13.3308 12.8981 13.6607 12.4047C13.9907 11.9114 14.4596 11.5269 15.0083 11.2998C15.557 11.0727 16.1607 11.0133 16.7432 11.1291C17.3257 11.2448 17.8607 11.5306 18.2807 11.9501C18.7006 12.3697 18.9866 12.9042 19.1024 13.4862C19.2183 14.0681 19.1588 14.6713 18.9315 15.2195C18.7043 15.7677 18.3194 16.2362 17.8256 16.5658C17.3318 16.8955 16.7513 17.0714 16.1574 17.0714L16.1574 19.0714" stroke="white" stroke-width="1.5" stroke-linecap="round" stroke-linejoin="round"/>
<path d="M16.1575 22.9286C15.9208 22.9286 15.7289 22.7367 15.7289 22.5C15.7289 22.2632 15.9208 22.0714 16.1575 22.0714" stroke="white" stroke-width="1.5" stroke-linecap="round" stroke-linejoin="round"/>
<path d="M16.1575 22.9286C16.3942 22.9286 16.586 22.7367 16.586 22.5C16.586 22.2632 16.3942 22.0714 16.1575 22.0714" stroke="white" stroke-width="1.5" stroke-linecap="round" stroke-linejoin="round"/>
</svg>
