<svg width="59" height="61" viewBox="0 0 59 61" fill="none" xmlns="http://www.w3.org/2000/svg">
<g clip-path="url(#clip0_1589_7421)">
<path fill-rule="evenodd" clip-rule="evenodd" d="M15.3777 59.56C23.2195 59.56 29.5764 53.2031 29.5764 45.3613C29.5764 37.5196 23.2195 31.1626 15.3777 31.1626C7.53593 31.1626 1.17896 37.5196 1.17896 45.3613C1.17896 53.2031 7.53593 59.56 15.3777 59.56ZM15.3777 49.7301C17.7905 49.7301 19.7465 47.7741 19.7465 45.3613C19.7465 42.9485 17.7905 40.9925 15.3777 40.9925C12.9648 40.9925 11.0088 42.9485 11.0088 45.3613C11.0088 47.7741 12.9648 49.7301 15.3777 49.7301Z" fill="#FAB7B9"/>
<path d="M15.3779 49.7301C17.7907 49.7301 19.7467 47.7741 19.7467 45.3613C19.7467 42.9484 17.7907 40.9924 15.3779 40.9924C12.965 40.9924 11.009 42.9484 11.009 45.3613C11.009 47.7741 12.965 49.7301 15.3779 49.7301Z" stroke="#3D3E53" stroke-width="1.05455" stroke-linecap="round" stroke-linejoin="round"/>
<path d="M15.3777 59.56C23.2194 59.56 29.5764 53.203 29.5764 45.3613C29.5764 37.5196 23.2194 31.1626 15.3777 31.1626C7.53593 31.1626 1.17896 37.5196 1.17896 45.3613C1.17896 53.203 7.53593 59.56 15.3777 59.56Z" stroke="#3D3E53" stroke-width="1.58182" stroke-linecap="round" stroke-linejoin="round"/>
<path d="M25.2077 44.2691L24.1155 46.4535" stroke="#3D3E53" stroke-width="1.05455" stroke-linecap="round" stroke-linejoin="round"/>
<path d="M6.63989 49.7301L8.82431 51.9145" stroke="#3D3E53" stroke-width="1.05455" stroke-linecap="round" stroke-linejoin="round"/>
<path d="M17.562 35.5314L19.7464 37.7158" stroke="#3D3E53" stroke-width="1.05455" stroke-linecap="round" stroke-linejoin="round"/>
<path d="M7.73238 40.4464C7.43078 40.4464 7.18628 40.2019 7.18628 39.9003C7.18628 39.5987 7.43078 39.3542 7.73238 39.3542" stroke="#3D3E53" stroke-width="1.05455"/>
<path d="M7.73242 40.4464C8.03402 40.4464 8.27853 40.2019 8.27853 39.9003C8.27853 39.5987 8.03402 39.3542 7.73242 39.3542" stroke="#3D3E53" stroke-width="1.05455"/>
<path d="M18.6543 54.645C18.3527 54.645 18.1082 54.4006 18.1082 54.0989C18.1082 53.7972 18.3527 53.5528 18.6543 53.5528" stroke="#3D3E53" stroke-width="1.05455"/>
<path d="M18.6543 54.645C18.9559 54.645 19.2004 54.4006 19.2004 54.0989C19.2004 53.7972 18.9559 53.5528 18.6543 53.5528" stroke="#3D3E53" stroke-width="1.05455"/>
</g>
<g clip-path="url(#clip1_1589_7421)">
<path d="M28.8641 9.77203H48.1472C48.4669 9.77203 48.7735 9.89901 48.9996 10.125C49.2254 10.351 49.3524 10.6576 49.3524 10.9772V21.824C49.3524 23.1025 48.8446 24.3286 47.9405 25.2328C47.0364 26.1369 45.8102 26.6448 44.5317 26.6448H32.4797C31.2012 26.6448 29.975 26.1369 29.0709 25.2328C28.1668 24.3286 27.6589 23.1025 27.6589 21.824V10.9772C27.6589 10.6576 27.7859 10.351 28.0119 10.125C28.2379 9.89901 28.5445 9.77203 28.8641 9.77203Z" fill="white"/>
<path d="M27.6589 21.824C27.6589 23.1025 28.1668 24.3286 29.0709 25.2328C29.975 26.1369 31.2012 26.6448 32.4797 26.6448H44.5317C45.8102 26.6448 47.0364 26.1369 47.9405 25.2328C48.8446 24.3286 49.3524 23.1025 49.3524 21.824V12.785H38.5057H27.6589V21.824Z" fill="#C26054"/>
<path d="M27.6589 12.785V10.9772C27.6589 10.6576 27.7859 10.351 28.0119 10.125C28.2379 9.89901 28.5445 9.77203 28.8641 9.77203H49.3524V12.785M27.6589 12.785V21.824C27.6589 23.1025 28.1668 24.3286 29.0709 25.2328C29.975 26.1369 31.2012 26.6448 32.4797 26.6448H44.5317C45.8102 26.6448 47.0364 26.1369 47.9405 25.2328C48.8446 24.3286 49.3524 23.1025 49.3524 21.824V12.785M27.6589 12.785H38.5057H49.3524" stroke="#3D3E53" stroke-width="1.58182" stroke-linecap="round" stroke-linejoin="round"/>
<path d="M25.2485 32.6708H56.5836" stroke="#3D3E53" stroke-width="1.58182" stroke-linecap="round" stroke-linejoin="round"/>
<path d="M49.3525 9.77203H51.7629C53.0414 9.77203 54.2676 10.2799 55.1717 11.184C56.0758 12.0881 56.5837 13.3143 56.5837 14.5928C56.5837 15.8714 56.0758 17.0975 55.1717 18.0016C54.2676 18.9057 53.0414 19.4136 51.7629 19.4136H49.3525" stroke="#3D3E53" stroke-width="1.58182" stroke-linecap="round" stroke-linejoin="round"/>
<path d="M31.2747 1.33563V3.74602" stroke="#3D3E53" stroke-width="1.58182" stroke-linecap="round" stroke-linejoin="round"/>
<path d="M43.3264 1.33563V3.74602" stroke="#3D3E53" stroke-width="1.58182" stroke-linecap="round" stroke-linejoin="round"/>
<path d="M37.3003 1.33563V3.74602" stroke="#3D3E53" stroke-width="1.58182" stroke-linecap="round" stroke-linejoin="round"/>
</g>
<defs>
<clipPath id="clip0_1589_7421">
<rect width="30.5818" height="30.5818" fill="white" transform="translate(0.0869141 30.0704)"/>
</clipPath>
<clipPath id="clip1_1589_7421">
<rect width="33.7455" height="33.7455" fill="white" transform="translate(24.0435 0.130432)"/>
</clipPath>
</defs>
</svg>
