<svg width="33" height="34" viewBox="0 0 33 34" fill="none" xmlns="http://www.w3.org/2000/svg">
<rect x="0.631348" y="0.842552" width="32" height="32" rx="16" transform="rotate(0.566639 0.631348 0.842552)" fill="#76DCC6"/>
<path d="M16.6648 7.83334L16.2798 7.83334C15.8157 7.83334 15.3705 8.02649 15.0424 8.37031C14.7142 8.71412 14.5298 9.18044 14.5298 9.66667L14.5298 9.83167C14.5295 10.1532 14.4485 10.4689 14.2949 10.7473C14.1413 11.0256 13.9206 11.2568 13.6548 11.4175L13.2785 11.6467C13.0125 11.8076 12.7107 11.8923 12.4035 11.8923C12.0964 11.8923 11.7946 11.8076 11.5285 11.6467L11.3973 11.5733C10.9957 11.3307 10.5186 11.2648 10.0708 11.3903C9.62294 11.5157 9.2409 11.8222 9.00854 12.2425L8.81604 12.5908C8.5844 13.0115 8.52155 13.5113 8.64131 13.9805C8.76107 14.4497 9.05364 14.8499 9.45479 15.0933L9.58604 15.185C9.85053 15.345 10.0705 15.5747 10.224 15.8513C10.3775 16.1279 10.4592 16.4417 10.461 16.7617L10.461 17.2292C10.4623 17.5522 10.382 17.8699 10.2283 18.15C10.0747 18.4301 9.8531 18.6626 9.58604 18.8242L9.45479 18.9067C9.05364 19.1501 8.76107 19.5503 8.64131 20.0195C8.52155 20.4887 8.5844 20.9885 8.81604 21.4092L9.00854 21.7575C9.2409 22.1778 9.62294 22.4843 10.0708 22.6097C10.5186 22.7352 10.9957 22.6693 11.3973 22.4267L11.5285 22.3533C11.7946 22.1924 12.0964 22.1077 12.4035 22.1077C12.7107 22.1077 13.0125 22.1924 13.2785 22.3533L13.6548 22.5825C13.9206 22.7433 14.1413 22.9744 14.2949 23.2527C14.4485 23.5311 14.5295 23.8468 14.5298 24.1683L14.5298 24.3333C14.5298 24.8196 14.7142 25.2859 15.0424 25.6297C15.3705 25.9735 15.8157 26.1667 16.2798 26.1667L16.6648 26.1667C17.1289 26.1667 17.574 25.9735 17.9022 25.6297C18.2304 25.2859 18.4148 24.8196 18.4148 24.3333L18.4148 24.1683C18.4151 23.8468 18.4961 23.5311 18.6497 23.2527C18.8033 22.9744 19.024 22.7433 19.2898 22.5825L19.666 22.3533C19.9321 22.1924 20.2339 22.1077 20.541 22.1077C20.8482 22.1077 21.15 22.1924 21.416 22.3533L21.5473 22.4267C21.9489 22.6693 22.4259 22.7352 22.8738 22.6097C23.3216 22.4843 23.7037 22.1778 23.936 21.7575L24.1285 21.4C24.3602 20.9793 24.423 20.4795 24.3033 20.0103C24.1835 19.5412 23.8909 19.1409 23.4898 18.8975L23.3585 18.8242C23.0915 18.6626 22.8699 18.4301 22.7163 18.15C22.5626 17.8699 22.4823 17.5522 22.4835 17.2292L22.4835 16.7708C22.4823 16.4478 22.5626 16.1301 22.7163 15.85C22.8699 15.5699 23.0915 15.3374 23.3585 15.1758L23.4898 15.0933C23.8909 14.8499 24.1835 14.4497 24.3033 13.9805C24.423 13.5113 24.3602 13.0115 24.1285 12.5908L23.936 12.2425C23.7037 11.8222 23.3216 11.5157 22.8738 11.3903C22.4259 11.2648 21.9489 11.3307 21.5473 11.5733L21.416 11.6467C21.15 11.8076 20.8482 11.8923 20.541 11.8923C20.2339 11.8923 19.9321 11.8076 19.666 11.6467L19.2898 11.4175C19.024 11.2568 18.8033 11.0256 18.6497 10.7473C18.4961 10.4689 18.4151 10.1532 18.4148 9.83167L18.4148 9.66667C18.4148 9.18044 18.2304 8.71412 17.9022 8.37031C17.574 8.02649 17.1289 7.83334 16.6648 7.83334Z" stroke="white" stroke-linecap="round" stroke-linejoin="round"/>
<path d="M16.4723 19.75C17.922 19.75 19.0973 18.5188 19.0973 17C19.0973 15.4812 17.922 14.25 16.4723 14.25C15.0225 14.25 13.8473 15.4812 13.8473 17C13.8473 18.5188 15.0225 19.75 16.4723 19.75Z" stroke="white" stroke-linecap="round" stroke-linejoin="round"/>
</svg>
