<svg width="15" height="18" viewBox="0 0 15 18" fill="none" xmlns="http://www.w3.org/2000/svg">
<path d="M5.18339 14.9017C5.31274 14.9017 5.41662 14.8645 5.49502 14.79C5.57341 14.7155 5.61065 14.6175 5.60673 14.496L5.3539 6.0116C5.3539 5.89008 5.31274 5.79405 5.23043 5.72349C5.15203 5.65293 5.05404 5.61766 4.93644 5.61766C4.80317 5.61766 4.69733 5.65489 4.61894 5.72937C4.54446 5.79993 4.50918 5.89596 4.5131 6.01748L4.75417 14.5019C4.76201 14.6234 4.80317 14.7195 4.87764 14.79C4.95604 14.8645 5.05796 14.9017 5.18339 14.9017ZM7.5 14.9017C7.62935 14.9017 7.73323 14.8645 7.81163 14.79C7.89394 14.7155 7.9351 14.6175 7.9351 14.496V6.01748C7.9351 5.89596 7.89394 5.79993 7.81163 5.72937C7.73323 5.65489 7.62935 5.61766 7.5 5.61766C7.37065 5.61766 7.26481 5.65489 7.1825 5.72937C7.1041 5.79993 7.0649 5.89596 7.0649 6.01748V14.496C7.0649 14.6175 7.1041 14.7155 7.1825 14.79C7.26481 14.8645 7.37065 14.9017 7.5 14.9017ZM9.81073 14.9017C9.94008 14.9017 10.042 14.8665 10.1165 14.7959C10.1949 14.7253 10.236 14.6273 10.2399 14.5019L10.481 6.02336C10.4849 5.90184 10.4477 5.80385 10.3693 5.72937C10.2948 5.65489 10.1929 5.61766 10.0636 5.61766C9.94204 5.61766 9.84209 5.65293 9.76369 5.72349C9.6853 5.79405 9.64414 5.89204 9.64022 6.01748L9.39327 14.5019C9.38935 14.6195 9.42463 14.7155 9.4991 14.79C9.5775 14.8645 9.68138 14.9017 9.81073 14.9017ZM4.225 3.7479V2.07218C4.225 1.54693 4.38375 1.13535 4.70125 0.837444C5.02268 0.535618 5.46366 0.384705 6.02419 0.384705H8.95817C9.5187 0.384705 9.95772 0.535618 10.2752 0.837444C10.5967 1.13535 10.7574 1.54693 10.7574 2.07218V3.7479H9.72841V2.13098C9.72841 1.89579 9.65394 1.70764 9.50498 1.56653C9.35603 1.42542 9.15416 1.35486 8.89937 1.35486H6.08299C5.8282 1.35486 5.62633 1.42542 5.47738 1.56653C5.32842 1.70764 5.25395 1.89579 5.25395 2.13098V3.7479H4.225ZM0.697164 4.25944C0.56781 4.25944 0.454136 4.2124 0.35614 4.11833C0.258145 4.02033 0.209147 3.9047 0.209147 3.77142C0.209147 3.63815 0.258145 3.52252 0.35614 3.42452C0.454136 3.32653 0.56781 3.27753 0.697164 3.27753H14.297C14.4302 3.27753 14.5439 3.32653 14.638 3.42452C14.736 3.5186 14.785 3.63423 14.785 3.77142C14.785 3.9047 14.7379 4.02033 14.6439 4.11833C14.5498 4.2124 14.4341 4.25944 14.297 4.25944H0.697164ZM4.0486 17.1772C3.70366 17.1772 3.39988 17.1066 3.13725 16.9655C2.87854 16.8244 2.67275 16.6265 2.51988 16.3717C2.367 16.1169 2.28273 15.8209 2.26705 15.4838L1.70848 4.10657H13.2915L12.733 15.4779C12.7173 15.815 12.631 16.111 12.4742 16.3658C12.3214 16.6206 12.1136 16.8185 11.851 16.9596C11.5923 17.1047 11.2944 17.1772 10.9573 17.1772H4.0486Z" fill="white"/>
</svg>
