<svg width="15" height="14" viewBox="0 0 15 14" fill="none" xmlns="http://www.w3.org/2000/svg">
<path d="M7.43956 0.560304C6.27474 0.560667 5.13182 0.876971 4.13254 1.47553C3.13327 2.07409 2.31506 2.93248 1.76506 3.95928C1.21505 4.98608 0.953864 6.14284 1.0093 7.30634C1.06474 8.46985 1.43473 9.59653 2.07987 10.5664L1 13.4395L4.61606 12.7856C5.4868 13.2111 6.44234 13.4346 7.41147 13.4394C8.3806 13.4442 9.33831 13.2302 10.2132 12.8133C11.0881 12.3965 11.8577 11.7875 12.4644 11.0318C13.0712 10.2762 13.4997 9.39326 13.7177 8.44897C13.9358 7.50469 13.938 6.52336 13.724 5.57814C13.51 4.63291 13.0855 3.74817 12.482 2.98987C11.8785 2.23156 11.1116 1.61926 10.2385 1.19859C9.36547 0.777913 8.4087 0.559732 7.43956 0.560304Z" stroke="#8E8E93" stroke-linecap="round" stroke-linejoin="round"/>
<path d="M4.14136 7.99976C4.64136 9.79976 6.64136 10.8998 8.44136 10.3998C9.54136 9.99976 10.4414 9.09976 10.7414 7.99976" stroke="#8E8E93" stroke-linecap="round" stroke-linejoin="round"/>
<path d="M5.19141 5.49976C5.05334 5.49976 4.94141 5.38783 4.94141 5.24976C4.94141 5.11169 5.05334 4.99976 5.19141 4.99976" stroke="#8E8E93" stroke-linecap="round" stroke-linejoin="round"/>
<path d="M5.19141 5.49976C5.32948 5.49976 5.44141 5.38783 5.44141 5.24976C5.44141 5.11169 5.32948 4.99976 5.19141 4.99976" stroke="#8E8E93" stroke-linecap="round" stroke-linejoin="round"/>
<path d="M9.69141 5.49976C9.55334 5.49976 9.44141 5.38783 9.44141 5.24976C9.44141 5.11169 9.55334 4.99976 9.69141 4.99976" stroke="#8E8E93" stroke-linecap="round" stroke-linejoin="round"/>
<path d="M9.69141 5.49976C9.82948 5.49976 9.94141 5.38783 9.94141 5.24976C9.94141 5.11169 9.82948 4.99976 9.69141 4.99976" stroke="#8E8E93" stroke-linecap="round" stroke-linejoin="round"/>
</svg>
