<svg width="20" height="20" viewBox="0 0 20 20" fill="none" xmlns="http://www.w3.org/2000/svg">
<rect width="20" height="20" rx="10" fill="#BEBEBE"/>
<path d="M4 9.99249C4 13.2966 6.7 16 10 16C13.3 16 16 13.2966 16 9.99249C16 8.34043 15.355 6.80851 14.26 5.72716L13.18 6.80851C13.99 7.61952 14.5 8.74593 14.5 10.0075C14.5 12.5006 12.49 14.5131 10 14.5131C7.51 14.5131 5.5 12.5006 5.5 10.0075C5.5 8.76095 6.04 7.6796 6.865 6.86859L8.5 8.50563V4H4L5.785 5.78723C4.705 6.86859 4 8.35544 4 10.0075V9.99249Z" fill="white"/>
</svg>
