<svg width="24" height="24" viewBox="0 0 24 24" fill="none" xmlns="http://www.w3.org/2000/svg">
<rect width="24" height="24" rx="12" fill="#76DCC6"/>
<path d="M6 11.9925C6 15.2966 8.7 18 12 18C15.3 18 18 15.2966 18 11.9925C18 10.3404 17.355 8.80851 16.26 7.72716L15.18 8.80851C15.99 9.61952 16.5 10.7459 16.5 12.0075C16.5 14.5006 14.49 16.5131 12 16.5131C9.51 16.5131 7.5 14.5006 7.5 12.0075C7.5 10.761 8.04 9.6796 8.865 8.86859L10.5 10.5056V6H6L7.785 7.78723C6.705 8.86859 6 10.3554 6 12.0075V11.9925Z" fill="white"/>
</svg>
