<svg width="36" height="36" viewBox="0 0 36 36" fill="none" xmlns="http://www.w3.org/2000/svg">
<path fill-rule="evenodd" clip-rule="evenodd" d="M8.11125 0H27.8888C32.3685 0 36 3.63153 36 8.11125V27.8888C36 32.3685 32.3685 36 27.8888 36H8.11125C3.63153 36 0 32.3685 0 27.8888V8.11125C0 3.63153 3.63153 0 8.11125 0ZM18.0038 29.4525C19.2863 28.9125 24.9113 25.3913 27.4313 22.4888C29.1638 20.5763 30.0075 18.6413 30.0075 16.4925C30.0075 11.1263 24.6188 6.75 18.0038 6.75C11.3775 6.75 6 11.1263 6 16.4925C6 21.3075 10.2638 25.3463 16.035 26.1C16.4288 26.19 16.9575 26.3587 17.0925 26.6962C17.2163 27 17.1713 27.4725 17.1263 27.7875C17.0363 28.35 16.98 28.6913 16.9575 28.8113L16.951 28.8537C16.8987 29.1883 16.7767 29.9691 18.0038 29.4525ZM22.4513 19.4062H25.8263C25.95 19.4062 26.0513 19.305 26.0513 19.1812V18.3262C26.0513 18.2025 25.95 18.1012 25.8263 18.1012H23.5313V17.2125H25.8263C25.95 17.2125 26.0513 17.1112 26.0513 16.9875V16.1325C26.0513 16.0087 25.95 15.9075 25.8263 15.9075H23.5313V15.0187H25.8263C25.95 15.0187 26.0513 14.9175 26.0513 14.7937V13.9387C26.0513 13.815 25.95 13.7137 25.8263 13.7137H22.4513C22.3275 13.7137 22.2263 13.815 22.2263 13.9387V19.17V19.1812C22.2263 19.305 22.3275 19.4062 22.4513 19.4062ZM9.98625 19.4062H9.975C9.85125 19.4062 9.75 19.305 9.75 19.1812V19.17V13.9387C9.75 13.815 9.85125 13.7137 9.975 13.7137H10.83C10.9538 13.7137 11.055 13.815 11.055 13.9387V18.1012H13.35C13.4738 18.1012 13.575 18.2025 13.575 18.3262V19.1812C13.575 19.305 13.4738 19.4062 13.35 19.4062H9.98625ZM14.52 13.7137H15.375C15.4993 13.7137 15.6 13.8145 15.6 13.9387V19.1812C15.6 19.3055 15.4993 19.4062 15.375 19.4062H14.52C14.3958 19.4062 14.295 19.3055 14.295 19.1812V13.9387C14.295 13.8145 14.3958 13.7137 14.52 13.7137ZM21.405 13.9387V19.1812C21.405 19.305 21.3038 19.4062 21.1688 19.4062H20.325C20.3025 19.4062 20.2838 19.4025 20.2688 19.395H20.2463V19.3837H20.235H20.2238L20.2125 19.3725C20.205 19.3725 20.2013 19.3687 20.2013 19.3612H20.19C20.1675 19.3462 20.1488 19.3275 20.1338 19.305L17.7375 16.065V19.1812C17.7375 19.305 17.6363 19.4062 17.5013 19.4062H16.6575C16.5338 19.4062 16.4213 19.305 16.4213 19.1812V13.9387C16.4213 13.815 16.5338 13.7137 16.6575 13.7137H17.5013H17.5125H17.5238H17.535H17.5463H17.5575H17.5688C17.5688 13.7212 17.5725 13.725 17.58 13.725H17.5913L17.6025 13.7362H17.625V13.7475C17.6325 13.7475 17.6363 13.7512 17.6363 13.7587H17.6475L17.6588 13.77L17.6813 13.7925C17.6888 13.8 17.6925 13.8075 17.6925 13.815L20.0888 17.0437V13.9387C20.0888 13.815 20.2013 13.7137 20.325 13.7137H21.1688C21.3038 13.7137 21.405 13.815 21.405 13.9387Z" fill="#06C755"/>
</svg>
