<svg width="93" height="89" viewBox="0 0 93 89" fill="none" xmlns="http://www.w3.org/2000/svg">
<path d="M26.1312 38.2524C22.9505 33.9927 23.4203 28.2634 27.1805 25.4557C30.9407 22.6479 36.5675 23.8251 39.7482 28.0848C42.9289 32.3446 41.4056 44.5067 41.4056 44.5067C41.4056 44.5067 29.3118 42.5122 26.1312 38.2524Z" fill="#76DCC6"/>
<path fill-rule="evenodd" clip-rule="evenodd" d="M43.8929 59.5422V70.0477H49.5497V59.5422H61.8579V56.2476H49.5497V51.7719H61.8579V48.4772H51.166C51.166 48.4772 72.5457 33.9917 66.2093 25.2284C63.8081 21.9075 61.9761 22.2162 59.6201 25.2284C57.264 28.2406 52.2849 37.7852 52.2849 37.7852C51.8693 38.5431 51.4921 39.2337 51.1383 39.8816C49.6928 42.5282 48.6368 45.5808 46.9389 48.4772H42.2145H31.5225V51.7719H43.8929V56.2476H31.5225V59.5422H43.8929Z" fill="#76DCC6"/>
<path d="M92.2628 88.944H0.374754C0.374754 88.944 -1.23326 86.9182 2.21252 85.3988C5.65831 83.8795 88.3576 83.8794 90.8845 85.3988C93.4114 86.9182 92.2628 88.944 92.2628 88.944Z" fill="#76DCC6"/>
<path d="M64.0887 84.3857C52.6878 85.3313 44.7417 84.3857 44.7417 84.3857C44.7417 84.3857 31.4893 86.4432 24.4736 84.3857C17.4578 82.3282 8.81177 73.8486 8.81177 73.8486L44.7417 84.3857L81.8233 73.8486C81.8233 73.8486 75.4895 83.4401 64.0887 84.3857Z" fill="#76DCC6"/>
<path d="M22.8046 15.279C13.1453 15.2511 0 7.45351 0 7.45351H45.8372C45.8372 7.45351 58.9051 0.0803554 68.4138 0.000660857C78.1706 -0.081114 91.6744 7.45351 91.6744 7.45351H45.8372C45.8372 7.45351 32.546 15.3072 22.8046 15.279Z" fill="#76DCC6"/>
</svg>
