<svg width="33" height="33" viewBox="0 0 33 33" fill="none" xmlns="http://www.w3.org/2000/svg">
<path d="M13.0388 13.8009C13.0388 13.1847 13.2217 12.5823 13.5644 12.0699C13.9071 11.5575 14.3942 11.1581 14.964 10.9223C15.5339 10.6864 16.1609 10.6248 16.7659 10.745C17.3709 10.8652 17.9266 11.1619 18.3627 11.5977C18.7989 12.0335 19.0959 12.5887 19.2162 13.1931C19.3365 13.7975 19.2748 14.4239 19.0387 14.9933C18.8027 15.5626 18.403 16.0493 17.8901 16.3916C17.3773 16.734 16.7743 16.9167 16.1575 16.9167L16.1575 18.9939" stroke="#76DCC6" stroke-width="1.55791" stroke-linecap="round" stroke-linejoin="round"/>
<path d="M16.1575 23C15.9117 23 15.7124 22.8008 15.7124 22.5549C15.7124 22.309 15.9117 22.1098 16.1575 22.1098" stroke="#76DCC6" stroke-width="1.55791" stroke-linecap="round" stroke-linejoin="round"/>
<path d="M16.1575 23C16.4033 23 16.6026 22.8008 16.6026 22.5549C16.6026 22.309 16.4033 22.1098 16.1575 22.1098" stroke="#76DCC6" stroke-width="1.55791" stroke-linecap="round" stroke-linejoin="round"/>
<path d="M15.9319 28.7384C22.5594 28.7384 27.9319 23.3659 27.9319 16.7384C27.9319 10.111 22.5594 4.73844 15.9319 4.73844C9.30447 4.73844 3.93188 10.111 3.93188 16.7384C3.93188 23.3659 9.30447 28.7384 15.9319 28.7384Z" stroke="#76DCC6" stroke-linecap="round" stroke-linejoin="round"/>
</svg>
