<svg width="146" height="146" viewBox="0 0 146 146" fill="none" xmlns="http://www.w3.org/2000/svg">
<rect width="146" height="146" fill="currentColor"/>
<rect width="146" height="146" fill="currentColor"/>
<path d="M51.5964 66.2641C48.4157 62.0044 48.8855 56.2751 52.6457 53.4674C56.406 50.6597 62.0327 51.8368 65.2134 56.0965C68.3941 60.3563 66.8708 72.5184 66.8708 72.5184C66.8708 72.5184 54.777 70.5239 51.5964 66.2641Z" fill="white"/>
<path fill-rule="evenodd" clip-rule="evenodd" d="M69.358 87.5539V98.0594H75.0148V87.5539H87.323V84.2593H75.0148V79.7836H87.323V76.4889H76.631C76.631 76.4889 98.0108 62.0034 91.6744 53.2401C89.2732 49.9192 87.4412 50.2279 85.0852 53.2401C82.7291 56.2523 77.75 65.7969 77.75 65.7969C77.3344 66.5548 76.9572 67.2454 76.6034 67.8933C75.1579 70.54 74.1019 73.5925 72.404 76.4889H67.6796H56.9876V79.7836H69.358V84.2593H56.9876V87.5539H69.358Z" fill="white"/>
<path d="M117.728 116.956H25.8398C25.8398 116.956 24.2318 114.93 27.6776 113.411C31.1234 111.891 113.823 111.891 116.35 113.411C118.876 114.93 117.728 116.956 117.728 116.956Z" fill="white"/>
<path d="M89.5537 112.397C78.1529 113.343 70.2068 112.397 70.2068 112.397C70.2068 112.397 56.9544 114.455 49.9386 112.397C42.9229 110.34 34.2769 101.86 34.2769 101.86L70.2068 112.397L107.288 101.86C107.288 101.86 100.955 111.452 89.5537 112.397Z" fill="white"/>
<path d="M48.2697 43.2907C38.6104 43.2628 25.4651 35.4652 25.4651 35.4652H71.3023C71.3023 35.4652 84.3702 28.0921 93.8788 28.0124C103.636 27.9306 117.14 35.4652 117.14 35.4652H71.3023C71.3023 35.4652 58.0111 43.3189 48.2697 43.2907Z" fill="white"/>
</svg>
