<svg width="30" height="30" viewBox="0 0 30 30" fill="none" xmlns="http://www.w3.org/2000/svg">
<g clip-path="url(#clip0_199_48)">
<path d="M10.1786 11.7857C9.88273 11.7857 9.64288 11.5459 9.64288 11.25C9.64288 10.9541 9.88273 10.7143 10.1786 10.7143" stroke="black" stroke-linecap="round" stroke-linejoin="round"/>
<path d="M10.1786 11.7857C10.4745 11.7857 10.7143 11.5459 10.7143 11.25C10.7143 10.9541 10.4745 10.7143 10.1786 10.7143" stroke="black" stroke-linecap="round" stroke-linejoin="round"/>
<path d="M19.8215 11.7857C19.5256 11.7857 19.2857 11.5459 19.2857 11.25C19.2857 10.9541 19.5256 10.7143 19.8215 10.7143" stroke="black" stroke-linecap="round" stroke-linejoin="round"/>
<path d="M19.8214 11.7857C20.1173 11.7857 20.3572 11.5459 20.3572 11.25C20.3572 10.9541 20.1173 10.7143 19.8214 10.7143" stroke="black" stroke-linecap="round" stroke-linejoin="round"/>
<path d="M15 28.9286C22.6927 28.9286 28.9286 22.6926 28.9286 15C28.9286 7.30745 22.6927 1.07141 15 1.07141C7.30748 1.07141 1.07144 7.30745 1.07144 15C1.07144 22.6926 7.30748 28.9286 15 28.9286Z" stroke="black" stroke-linecap="round" stroke-linejoin="round"/>
<path d="M8.57144 21.4285C9.53093 18.3684 13.177 16.4983 16.823 17.3483C18.9339 17.8583 20.661 19.3884 21.4286 21.4285" stroke="black" stroke-linecap="round" stroke-linejoin="round"/>
</g>
<defs>
<clipPath id="clip0_199_48">
<rect width="30" height="30" fill="white"/>
</clipPath>
</defs>
</svg>
