<svg width="22" height="24" viewBox="0 0 22 24" fill="none" xmlns="http://www.w3.org/2000/svg">
<path d="M11.244 1L10.756 1C10.1678 1 9.60368 1.23178 9.18775 1.64436C8.77181 2.05694 8.53814 2.61652 8.53814 3.2L8.53814 3.398C8.53774 3.7838 8.43507 4.16271 8.24043 4.49672C8.04579 4.83073 7.76603 5.1081 7.4292 5.301L6.95235 5.576C6.61519 5.76909 6.23273 5.87074 5.84341 5.87074C5.45408 5.87074 5.07162 5.76909 4.73446 5.576L4.56812 5.488C4.05919 5.19679 3.45456 5.11779 2.88696 5.26834C2.31936 5.41889 1.83518 5.78669 1.5407 6.291L1.29673 6.709C1.00315 7.21383 0.923509 7.81358 1.07528 8.3766C1.22706 8.93962 1.59785 9.41989 2.10626 9.712L2.2726 9.822C2.60781 10.014 2.88654 10.2896 3.08108 10.6215C3.27562 10.9534 3.37921 11.3301 3.38155 11.714L3.38155 12.275C3.3831 12.6627 3.28136 13.0438 3.08662 13.38C2.89188 13.7161 2.61106 13.9952 2.2726 14.189L2.10626 14.288C1.59785 14.5801 1.22706 15.0604 1.07528 15.6234C0.923509 16.1864 1.00315 16.7862 1.29673 17.291L1.5407 17.709C1.83518 18.2133 2.31936 18.5811 2.88696 18.7317C3.45456 18.8822 4.05919 18.8032 4.56812 18.512L4.73446 18.424C5.07162 18.2309 5.45408 18.1293 5.84341 18.1293C6.23273 18.1293 6.61519 18.2309 6.95235 18.424L7.4292 18.699C7.76603 18.8919 8.04579 19.1693 8.24043 19.5033C8.43507 19.8373 8.53774 20.2162 8.53814 20.602L8.53814 20.8C8.53814 21.3835 8.77181 21.9431 9.18775 22.3556C9.60368 22.7682 10.1678 23 10.756 23L11.244 23C11.8322 23 12.3963 22.7682 12.8123 22.3556C13.2282 21.9431 13.4619 21.3835 13.4619 20.8L13.4619 20.602C13.4623 20.2162 13.5649 19.8373 13.7596 19.5033C13.9542 19.1693 14.234 18.8919 14.5708 18.699L15.0476 18.424C15.3848 18.2309 15.7673 18.1293 16.1566 18.1293C16.5459 18.1293 16.9284 18.2309 17.2655 18.424L17.4319 18.512C17.9408 18.8032 18.5454 18.8822 19.113 18.7317C19.6806 18.5811 20.1648 18.2133 20.4593 17.709L20.7033 17.28C20.9968 16.7752 21.0765 16.1754 20.9247 15.6124C20.7729 15.0494 20.4022 14.5691 19.8937 14.277L19.7274 14.189C19.3889 13.9952 19.1081 13.7161 18.9134 13.38C18.7186 13.0438 18.6169 12.6627 18.6185 12.275L18.6185 11.725C18.6169 11.3373 18.7186 10.9562 18.9134 10.62C19.1081 10.2839 19.3889 10.0048 19.7274 9.811L19.8937 9.712C20.4022 9.41989 20.7729 8.93962 20.9247 8.3766C21.0765 7.81358 20.9968 7.21383 20.7033 6.709L20.4593 6.291C20.1648 5.78669 19.6806 5.41889 19.113 5.26834C18.5454 5.11779 17.9408 5.19679 17.4319 5.488L17.2655 5.576C16.9284 5.76909 16.5459 5.87074 16.1566 5.87074C15.7673 5.87074 15.3848 5.76909 15.0476 5.576L14.5708 5.301C14.234 5.1081 13.9542 4.83073 13.7596 4.49672C13.5649 4.16271 13.4623 3.7838 13.4619 3.398L13.4619 3.2C13.4619 2.61652 13.2282 2.05694 12.8123 1.64436C12.3963 1.23178 11.8322 1 11.244 1Z" stroke="#76DCC6" stroke-width="1.5" stroke-linecap="round" stroke-linejoin="round"/>
<path d="M11 15.3C12.8374 15.3 14.3268 13.8225 14.3268 12C14.3268 10.1775 12.8374 8.7 11 8.7C9.16264 8.7 7.67316 10.1775 7.67316 12C7.67316 13.8225 9.16264 15.3 11 15.3Z" stroke="#76DCC6" stroke-width="1.5" stroke-linecap="round" stroke-linejoin="round"/>
</svg>
