<svg width="188" height="64" viewBox="0 0 188 64" fill="none" xmlns="http://www.w3.org/2000/svg">
<g filter="url(#filter0_d_479_3256)">
<rect x="4" width="180" height="56" rx="8" fill="#06C755"/>
<g clip-path="url(#clip0_479_3256)">
<rect x="4" width="56" height="56" rx="22" fill="white"/>
<path d="M47.3828 0C54.351 0.000166985 59.9998 5.64898 60 12.6172V43.3828C59.9998 50.351 54.351 55.9998 47.3828 56H16.6172C9.64898 55.9998 4.00017 50.351 4 43.3828V12.6172C4.00017 5.64898 9.64898 0.000166474 16.6172 0H47.3828ZM32.0059 10.5C21.6984 10.5 13.333 17.3078 13.333 25.6553C13.3332 33.1451 19.966 39.4271 28.9434 40.5996C29.5557 40.7396 30.3777 41.0025 30.5879 41.5273C30.7803 41.9997 30.7106 42.7346 30.6406 43.2246C30.5006 44.0995 30.4129 44.6307 30.3779 44.8174C30.3079 45.2899 30.011 46.6553 32.0059 45.8154C34.0009 44.9754 42.7509 39.4974 46.6709 34.9824C49.3658 32.0075 50.6786 28.9976 50.6787 25.6553C50.6787 17.3078 42.2958 10.5 32.0059 10.5ZM20.8467 21.332C21.0392 21.332 21.1963 21.4901 21.1963 21.6826V28.1572H24.7666C24.9591 28.1572 25.1162 28.3153 25.1162 28.5078V29.8379C25.116 30.0302 24.959 30.1875 24.7666 30.1875H19.5166C19.3243 30.1875 19.1672 30.0302 19.167 29.8379V21.6826C19.167 21.4901 19.3241 21.3321 19.5166 21.332H20.8467ZM27.917 21.332C28.1102 21.3322 28.2666 21.4894 28.2666 21.6826V29.8379C28.2664 30.0309 28.11 30.1874 27.917 30.1875H26.5869C26.3938 30.1875 26.2366 30.031 26.2363 29.8379V21.6826C26.2363 21.4893 26.3936 21.332 26.5869 21.332H27.917ZM31.3291 21.332C31.3291 21.3437 31.335 21.3496 31.3467 21.3496H31.3643L31.3818 21.3672H31.417V21.3848C31.4284 21.3849 31.4345 21.3909 31.4346 21.4023H31.4521C31.4532 21.4034 31.4584 21.4096 31.4688 21.4199C31.4804 21.4316 31.4923 21.4434 31.5039 21.4551C31.5156 21.4667 31.5215 21.4786 31.5215 21.4902L35.249 26.5127V21.6826C35.249 21.4903 35.4239 21.3323 35.6162 21.332H36.9287C37.1387 21.332 37.2969 21.4901 37.2969 21.6826V29.8379C37.2966 30.0302 37.1386 30.1875 36.9287 30.1875H35.6162C35.5815 30.1874 35.5525 30.1815 35.5293 30.1699H35.4941V30.1523H35.459C35.4474 30.1408 35.4414 30.1348 35.4414 30.1348C35.4299 30.1347 35.4238 30.1288 35.4238 30.1172H35.4062C35.3715 30.094 35.3425 30.065 35.3193 30.0303L31.5918 24.9902V29.8379C31.5916 30.0301 31.4342 30.1873 31.2246 30.1875H29.9121C29.7198 30.1875 29.5442 30.0302 29.5439 29.8379V21.6826C29.5439 21.4901 29.7196 21.332 29.9121 21.332H31.3291ZM44.1738 21.332C44.3663 21.332 44.5244 21.4901 44.5244 21.6826V23.0127C44.5243 23.2051 44.3662 23.3623 44.1738 23.3623H40.6045V24.7451H44.1738C44.3662 24.7451 44.5243 24.9023 44.5244 25.0947V26.4248C44.5244 26.6173 44.3663 26.7754 44.1738 26.7754H40.6045V28.1572H44.1738C44.3663 28.1572 44.5244 28.3153 44.5244 28.5078V29.8379C44.5242 30.0302 44.3662 30.1875 44.1738 30.1875H38.9238C38.7316 30.1873 38.5745 30.0301 38.5742 29.8379V21.6826C38.5742 21.4902 38.7315 21.3322 38.9238 21.332H44.1738Z" fill="#06C755"/>
</g>
<path d="M76.42 27.46C77.2867 29.7133 78.6533 31.56 80.52 33C82.4 34.4267 84.8 35.4 87.72 35.92C87.5733 36.0533 87.42 36.22 87.26 36.42C87.1133 36.6333 86.9667 36.8467 86.82 37.06C86.6867 37.2733 86.58 37.4667 86.5 37.64C84.5 37.2133 82.7467 36.5733 81.24 35.72C79.7333 34.8533 78.4467 33.7733 77.38 32.48C76.3267 31.1867 75.46 29.6733 74.78 27.94L76.42 27.46ZM83.26 26.54H83.62L83.96 26.44L85.26 27.02C84.8467 28.5267 84.28 29.86 83.56 31.02C82.8533 32.1667 82.02 33.1733 81.06 34.04C80.1 34.8933 79.0467 35.6133 77.9 36.2C76.7533 36.8 75.54 37.2933 74.26 37.68C74.14 37.4267 73.9733 37.14 73.76 36.82C73.56 36.5133 73.3667 36.26 73.18 36.06C74.3533 35.7667 75.4733 35.36 76.54 34.84C77.6067 34.3067 78.58 33.66 79.46 32.9C80.3533 32.14 81.12 31.26 81.76 30.26C82.4133 29.26 82.9133 28.1333 83.26 26.88V26.54ZM69.84 22.3H87.2V24.14H69.84V22.3ZM75.34 26.54H83.46V28.36H74.8L75.34 26.54ZM75.04 19.1H77C76.9733 19.4867 76.94 20.0067 76.9 20.66C76.86 21.3133 76.7933 22.0667 76.7 22.92C76.6067 23.7733 76.4667 24.6867 76.28 25.66C76.1067 26.6333 75.8733 27.6333 75.58 28.66C75.2867 29.6867 74.92 30.7 74.48 31.7C74.04 32.6867 73.5133 33.6333 72.9 34.54C72.3 35.4467 71.58 36.2667 70.74 37C70.5533 36.76 70.3133 36.52 70.02 36.28C69.7267 36.0533 69.42 35.8533 69.1 35.68C69.9267 35.0133 70.64 34.26 71.24 33.42C71.84 32.58 72.3467 31.6867 72.76 30.74C73.1867 29.7933 73.5333 28.84 73.8 27.88C74.08 26.9067 74.3 25.9667 74.46 25.06C74.62 24.14 74.7333 23.2867 74.8 22.5C74.88 21.7 74.9333 21.0133 74.96 20.44C75 19.8533 75.0267 19.4067 75.04 19.1ZM97.02 20.42C96.9533 20.66 96.88 20.96 96.8 21.32C96.7333 21.6667 96.68 21.94 96.64 22.14C96.5467 22.6067 96.4333 23.1667 96.3 23.82C96.1667 24.46 96.02 25.1333 95.86 25.84C95.7 26.5467 95.5333 27.2333 95.36 27.9C95.1733 28.6067 94.9533 29.3733 94.7 30.2C94.46 31.0267 94.1933 31.8667 93.9 32.72C93.62 33.56 93.3333 34.36 93.04 35.12C92.76 35.8667 92.48 36.5267 92.2 37.1L90 36.36C90.3067 35.8533 90.62 35.24 90.94 34.52C91.26 33.7867 91.5733 33.0067 91.88 32.18C92.1867 31.34 92.4667 30.5067 92.72 29.68C92.9867 28.8533 93.2133 28.0933 93.4 27.4C93.5333 26.9333 93.66 26.4467 93.78 25.94C93.9 25.42 94.0133 24.92 94.12 24.44C94.2267 23.96 94.3133 23.5133 94.38 23.1C94.4467 22.6733 94.5 22.3267 94.54 22.06C94.5933 21.7267 94.62 21.3933 94.62 21.06C94.6333 20.7267 94.6333 20.4533 94.62 20.24L97.02 20.42ZM92.3 23.62C93.0733 23.62 93.8933 23.58 94.76 23.5C95.6267 23.42 96.5067 23.3067 97.4 23.16C98.3067 23.0133 99.18 22.84 100.02 22.64V24.6C99.1933 24.7867 98.32 24.9467 97.4 25.08C96.48 25.2133 95.58 25.32 94.7 25.4C93.82 25.4667 93.0133 25.5 92.28 25.5C91.8133 25.5 91.3933 25.4933 91.02 25.48C90.6467 25.4667 90.2733 25.4467 89.9 25.42L89.86 23.46C90.3533 23.5133 90.7867 23.5533 91.16 23.58C91.5333 23.6067 91.9133 23.62 92.3 23.62ZM98.6 26.5C99.1467 26.4467 99.7467 26.4067 100.4 26.38C101.053 26.34 101.7 26.32 102.34 26.32C102.927 26.32 103.513 26.3333 104.1 26.36C104.7 26.3733 105.28 26.4133 105.84 26.48L105.78 28.4C105.273 28.3333 104.727 28.28 104.14 28.24C103.567 28.1867 102.98 28.16 102.38 28.16C101.727 28.16 101.087 28.18 100.46 28.22C99.8467 28.2467 99.2267 28.2933 98.6 28.36V26.5ZM99.3 31.44C99.2333 31.7467 99.1733 32.0533 99.12 32.36C99.0667 32.6533 99.04 32.9267 99.04 33.18C99.04 33.4067 99.08 33.6267 99.16 33.84C99.2533 34.04 99.4067 34.22 99.62 34.38C99.8467 34.54 100.16 34.6667 100.56 34.76C100.973 34.8533 101.5 34.9 102.14 34.9C102.793 34.9 103.46 34.8667 104.14 34.8C104.82 34.72 105.487 34.62 106.14 34.5L106.08 36.52C105.52 36.5867 104.907 36.6467 104.24 36.7C103.587 36.7667 102.88 36.8 102.12 36.8C100.493 36.8 99.2467 36.54 98.38 36.02C97.5267 35.5 97.1 34.7467 97.1 33.76C97.1 33.3333 97.1333 32.9133 97.2 32.5C97.2667 32.0733 97.34 31.66 97.42 31.26L99.3 31.44ZM103.68 21.02C103.853 21.26 104.04 21.5467 104.24 21.88C104.44 22.2 104.633 22.5333 104.82 22.88C105.007 23.2133 105.167 23.5067 105.3 23.76L103.98 24.34C103.86 24.06 103.707 23.76 103.52 23.44C103.333 23.1067 103.14 22.7733 102.94 22.44C102.753 22.1067 102.567 21.8133 102.38 21.56L103.68 21.02ZM105.96 20.16C106.133 20.4133 106.32 20.7067 106.52 21.04C106.733 21.3733 106.94 21.7067 107.14 22.04C107.34 22.3733 107.5 22.66 107.62 22.9L106.32 23.48C106.107 23.04 105.847 22.56 105.54 22.04C105.233 21.52 104.947 21.0733 104.68 20.7L105.96 20.16ZM117.22 20.22C117.127 20.5133 117.047 20.82 116.98 21.14C116.927 21.46 116.867 21.7667 116.8 22.06C116.747 22.38 116.673 22.7667 116.58 23.22C116.487 23.66 116.38 24.14 116.26 24.66C116.153 25.1667 116.04 25.68 115.92 26.2C115.8 26.72 115.673 27.22 115.54 27.7C115.407 28.1667 115.273 28.5867 115.14 28.96C115.993 28.4267 116.853 28.0467 117.72 27.82C118.587 27.58 119.507 27.46 120.48 27.46C121.56 27.46 122.48 27.6333 123.24 27.98C124.013 28.3133 124.613 28.7867 125.04 29.4C125.467 30.0133 125.68 30.7333 125.68 31.56C125.68 32.6267 125.42 33.5333 124.9 34.28C124.393 35.0267 123.673 35.6067 122.74 36.02C121.807 36.4467 120.693 36.72 119.4 36.84C118.12 36.96 116.693 36.94 115.12 36.78L114.58 34.76C115.713 34.92 116.813 34.9933 117.88 34.98C118.96 34.9667 119.927 34.8467 120.78 34.62C121.633 34.38 122.313 34.0133 122.82 33.52C123.327 33.0267 123.58 32.3867 123.58 31.6C123.58 30.92 123.293 30.3467 122.72 29.88C122.16 29.4 121.34 29.16 120.26 29.16C119.087 29.16 117.993 29.36 116.98 29.76C115.967 30.16 115.14 30.7533 114.5 31.54C114.393 31.6867 114.293 31.8333 114.2 31.98C114.107 32.1133 114.013 32.2667 113.92 32.44L112.04 31.78C112.427 31.0333 112.78 30.2 113.1 29.28C113.42 28.36 113.7 27.4333 113.94 26.5C114.193 25.5533 114.4 24.68 114.56 23.88C114.72 23.08 114.827 22.4267 114.88 21.92C114.933 21.56 114.967 21.2467 114.98 20.98C115.007 20.7 115.007 20.4133 114.98 20.12L117.22 20.22ZM110.68 22.68C111.253 22.7733 111.9 22.8533 112.62 22.92C113.34 22.9867 114.007 23.02 114.62 23.02C115.26 23.02 115.967 23 116.74 22.96C117.527 22.92 118.347 22.86 119.2 22.78C120.053 22.7 120.907 22.6 121.76 22.48C122.627 22.3467 123.46 22.1933 124.26 22.02L124.3 23.94C123.62 24.0467 122.867 24.1533 122.04 24.26C121.213 24.3667 120.367 24.4667 119.5 24.56C118.633 24.64 117.78 24.7067 116.94 24.76C116.1 24.8 115.333 24.82 114.64 24.82C113.92 24.82 113.227 24.8067 112.56 24.78C111.893 24.74 111.267 24.6933 110.68 24.64V22.68ZM133.86 26.96V34.18H132.02V28.72H129.44V26.96H133.86ZM133.86 33.36C134.313 34.0533 134.94 34.5733 135.74 34.92C136.553 35.2533 137.513 35.44 138.62 35.48C139.193 35.5067 139.873 35.5267 140.66 35.54C141.447 35.54 142.28 35.5333 143.16 35.52C144.04 35.4933 144.893 35.4667 145.72 35.44C146.547 35.4133 147.273 35.3733 147.9 35.32C147.82 35.4667 147.74 35.66 147.66 35.9C147.58 36.1267 147.507 36.36 147.44 36.6C147.373 36.84 147.32 37.06 147.28 37.26C146.707 37.2867 146.04 37.3067 145.28 37.32C144.533 37.3333 143.753 37.34 142.94 37.34C142.14 37.3533 141.36 37.3533 140.6 37.34C139.84 37.34 139.173 37.3267 138.6 37.3C137.333 37.2467 136.247 37.04 135.34 36.68C134.447 36.3333 133.673 35.7667 133.02 34.98C132.567 35.3933 132.093 35.8067 131.6 36.22C131.12 36.6333 130.607 37.06 130.06 37.5L129.1 35.54C129.567 35.2467 130.067 34.9067 130.6 34.52C131.147 34.1333 131.66 33.7467 132.14 33.36H133.86ZM129.56 20.74L130.96 19.6C131.387 19.8667 131.82 20.18 132.26 20.54C132.713 20.9 133.127 21.2667 133.5 21.64C133.873 22.0133 134.18 22.36 134.42 22.68L132.92 23.92C132.707 23.6 132.413 23.2533 132.04 22.88C131.68 22.4933 131.28 22.1133 130.84 21.74C130.413 21.3667 129.987 21.0333 129.56 20.74ZM136.84 21.16H145.66V26.58H136.84V25H143.84V22.72H136.84V21.16ZM139.82 19.06L142.04 19.38C141.827 19.8867 141.607 20.3867 141.38 20.88C141.167 21.36 140.973 21.7733 140.8 22.12L139.04 21.78C139.187 21.38 139.333 20.9267 139.48 20.42C139.64 19.9133 139.753 19.46 139.82 19.06ZM135.92 21.16H137.76V34.06H135.92V21.16ZM136.96 28.22H146.46V34.06H136.96V32.46H144.6V29.82H136.96V28.22ZM160.68 34.08H165.98V35.9H160.68V34.08ZM149.54 22.82H157.06V24.66H149.54V22.82ZM159.82 21.52H166.86V37.18H164.96V23.34H161.64V37.34H159.82V21.52ZM156.58 22.82H158.42C158.42 22.82 158.42 22.88 158.42 23C158.42 23.1067 158.42 23.2333 158.42 23.38C158.42 23.5267 158.413 23.6467 158.4 23.74C158.36 25.9267 158.32 27.7733 158.28 29.28C158.24 30.7867 158.187 32.0267 158.12 33C158.053 33.96 157.967 34.7067 157.86 35.24C157.767 35.76 157.64 36.1333 157.48 36.36C157.28 36.6533 157.067 36.86 156.84 36.98C156.627 37.1133 156.36 37.2067 156.04 37.26C155.76 37.3 155.407 37.32 154.98 37.32C154.553 37.3333 154.113 37.3267 153.66 37.3C153.647 37.02 153.587 36.7 153.48 36.34C153.387 35.98 153.26 35.6667 153.1 35.4C153.54 35.4267 153.947 35.4467 154.32 35.46C154.693 35.4733 154.973 35.48 155.16 35.48C155.307 35.48 155.433 35.46 155.54 35.42C155.647 35.3667 155.74 35.2733 155.82 35.14C155.94 34.98 156.033 34.6667 156.1 34.2C156.18 33.72 156.247 33.02 156.3 32.1C156.367 31.18 156.42 30 156.46 28.56C156.5 27.1067 156.54 25.3333 156.58 23.24V22.82ZM152.18 19.4H154.04C154.027 21.2933 153.993 23.1333 153.94 24.92C153.887 26.6933 153.747 28.3667 153.52 29.94C153.307 31.5133 152.953 32.9533 152.46 34.26C151.967 35.5667 151.287 36.7133 150.42 37.7C150.313 37.54 150.18 37.3733 150.02 37.2C149.86 37.04 149.687 36.88 149.5 36.72C149.327 36.56 149.16 36.4333 149 36.34C149.64 35.6467 150.16 34.8467 150.56 33.94C150.973 33.02 151.287 32.02 151.5 30.94C151.727 29.8467 151.887 28.68 151.98 27.44C152.073 26.2 152.127 24.9067 152.14 23.56C152.167 22.2 152.18 20.8133 152.18 19.4Z" fill="white"/>
</g>
<defs>
<filter id="filter0_d_479_3256" x="0" y="0" width="188" height="64" filterUnits="userSpaceOnUse" color-interpolation-filters="sRGB">
<feFlood flood-opacity="0" result="BackgroundImageFix"/>
<feColorMatrix in="SourceAlpha" type="matrix" values="0 0 0 0 0 0 0 0 0 0 0 0 0 0 0 0 0 0 127 0" result="hardAlpha"/>
<feOffset dy="4"/>
<feGaussianBlur stdDeviation="2"/>
<feComposite in2="hardAlpha" operator="out"/>
<feColorMatrix type="matrix" values="0 0 0 0 0 0 0 0 0 0 0 0 0 0 0 0 0 0 0.25 0"/>
<feBlend mode="normal" in2="BackgroundImageFix" result="effect1_dropShadow_479_3256"/>
<feBlend mode="normal" in="SourceGraphic" in2="effect1_dropShadow_479_3256" result="shape"/>
</filter>
<clipPath id="clip0_479_3256">
<rect x="4" width="56" height="56" rx="22" fill="white"/>
</clipPath>
</defs>
</svg>
