<svg width="31" height="32" viewBox="0 0 31 32" fill="none" xmlns="http://www.w3.org/2000/svg">
<path d="M29.8475 17.1417C29.6289 19.8886 28.6265 22.5149 26.9592 24.7088C25.2918 26.9027 23.0299 28.5718 20.4418 29.5178C17.8538 30.4639 15.0486 30.6473 12.3595 30.0461C9.67034 29.4447 7.21034 28.0842 5.27171 26.1259C3.33308 24.1678 1.99731 21.6942 1.42311 18.9992C0.84891 16.3042 1.06041 13.5009 2.03247 10.9226C3.00455 8.34422 4.69633 6.09909 6.90683 4.45392C9.11732 2.80875 11.7536 1.83269 14.5025 1.64172" stroke="black" stroke-linecap="round" stroke-linejoin="round"/>
<path d="M21.6779 18.4134C21.278 19.4426 20.6279 20.3559 19.7864 21.0707C18.9448 21.7855 17.9384 22.2793 16.8581 22.5074C15.7778 22.7354 14.6576 22.6907 13.599 22.377C12.5403 22.0633 11.5765 21.4908 10.7948 20.711C10.013 19.9313 9.43797 18.969 9.12161 17.9111C8.80524 16.8533 8.75754 15.7333 8.98282 14.6524C9.20812 13.5714 9.6993 12.5637 10.4119 11.7204C11.1245 10.877 12.0362 10.2245 13.0643 9.82202" stroke="black" stroke-linecap="round" stroke-linejoin="round"/>
<path d="M15.5 15.9999L21.0357 10.4642" stroke="black" stroke-linecap="round" stroke-linejoin="round"/>
<path d="M25.4643 11.5714L21.0357 10.4643L19.9286 6.03569L24.3572 1.60712L25.4643 6.03569L29.8929 7.14283L25.4643 11.5714Z" stroke="black" stroke-linecap="round" stroke-linejoin="round"/>
</svg>
